<?xml version="1.0" encoding="UTF-8"?>
<!-- Generator: Adobe Illustrator 15.0.2, SVG Export Plug-In . SVG Version: 6.00 Build 0)  -->
<!DOCTYPE svg PUBLIC "-//W3C//DTD SVG 1.1//EN" "http://www.w3.org/Graphics/SVG/1.1/DTD/svg11.dtd">
<svg xmlns="http://www.w3.org/2000/svg" xmlns:xlink="http://www.w3.org/1999/xlink" version="1.1" id="Layer_1" x="0px" y="0px" width="100px" height="100px" viewBox="0 0 512 508.996" enable-background="new 0 0 512 508.996" xml:space="preserve">
<g>
	<path d="M72.521,370.026c-37.464,0-67.853,30.366-67.853,67.876c0,37.479,30.389,67.879,67.853,67.879   c37.521,0,67.887-30.4,67.887-67.879C140.407,400.393,110.042,370.026,72.521,370.026z" fill="#F8F8FF"/>
	<path d="M51.486,183.4c-0.354,0-0.697,0.049-1.045,0.057V183.4h-26.77v0.302c-13.125,1.494-23.347,12.389-23.619,25.845H0v47.597   h0.317c1.468,12.219,11.106,21.812,23.347,23.2v0.302h26.77v-0.37c0.347,0.008,0.698,0.053,1.045,0.053   c98.705,0,179.087,79.767,180.154,178.223h-0.257v26.777h0.303c1.49,13.117,12.389,23.336,25.841,23.607v0.061h47.589v-0.316   c12.227-1.465,21.812-11.109,23.2-23.352h0.302v-26.762h-0.045C327.51,306.646,203.634,183.4,51.486,183.4z" fill="#F8F8FF"/>
	<path d="M511.962,458.536C510.891,205.528,304.763,0,51.486,0c-0.354,0-0.697,0.049-1.045,0.057V0h-26.77v0.302   C10.547,1.792,0.325,12.69,0.053,26.147H0v47.596h0.317C1.785,85.97,11.423,95.555,23.664,96.947v0.298h26.77v-0.37   c0.347,0.008,0.698,0.054,1.045,0.054c199.83,0,362.476,162.041,363.547,361.622h-0.271v26.777h0.302   c1.494,13.117,12.393,23.336,25.842,23.607v0.061h47.6v-0.316c12.219-1.465,21.804-11.109,23.2-23.352H512v-26.762h-0.038V458.536z   " fill="#F8F8FF"/>
</g>
</svg>
